# xmcd
#
# Track frame offsets:
#	150
#	21418
#	34736
#	47760
#	61760
#	77907
#	89777
#	103804
#
# Disc length: 1587 seconds
#
# Revision: 4
# Processed by: cddbd v1.5.1PL2 Copyright (c) Steve Scherf et al.
# Submitted via: EasyCDDAExtractor 9.0.0.1
#
DISCID=68063108
DTITLE=Alan Jackson - Greatest Hits - Vol II - CD 2
DYEAR=2003
DGENRE=Country
TTITLE0=Job Description
TTITLE1=Tropical Depression
TTITLE2=Let's Get Back To Me And You
TTITLE3=You Can't Give Up On Love
TTITLE4=Hole In The Wall
TTITLE5=Buicks To The Moon
TTITLE6=When Love Comes Around
TTITLE7=The Sounds
EXTD=YEAR: 2003
EXTT0=
EXTT1=
EXTT2=
EXTT3=
EXTT4=
EXTT5=
EXTT6=
EXTT7=
PLAYORDER=
